<svg id="Layer_1" data-name="Layer 1" xmlns="http://www.w3.org/2000/svg" viewBox="0 0 32 32"><defs><style>.cls-1,.cls-2{fill:#ffd11a;}.cls-2{stroke:#ffd11a;stroke-miterlimit:10;stroke-width:0.25px;}</style></defs><path class="cls-1" d="M17.3,22.66a8.53,8.53,0,0,0,5.09.68,7.89,7.89,0,0,0,2.42-.83,8.2,8.2,0,0,0,3.68-10.79,5.93,5.93,0,0,0-.29-.56,1.76,1.76,0,0,0-.26-.39.31.31,0,0,0-.46.1.33.33,0,0,0,0,.3c.06.23.11.45.15.68a9.22,9.22,0,0,1,.14,1.38,8.9,8.9,0,0,1-8.61,9.11h-.37a1.29,1.29,0,0,1-.5-.14,1.21,1.21,0,0,1,.47-2.27l-.4.5h0a.44.44,0,0,1,.36-.5,8.52,8.52,0,0,0,3.55-1.45,8.26,8.26,0,0,0,2.53-2.91,8.45,8.45,0,0,0,0-7.62h0a.12.12,0,0,1,.05-.17h0L26.54,7a.09.09,0,0,1,.11,0h0l.84,2.51-1-2.46.11,0L25,8,25,7.83a8.66,8.66,0,0,1,1.18,3.95,8.79,8.79,0,0,1-3.47,7.34,8.66,8.66,0,0,1-3.88,1.68l.36-.5h0a.43.43,0,0,1-.36.5h0c-.43,0-.44.81.29.62a7.79,7.79,0,0,0,2.44-.49,8,8,0,0,0,3.84-3,8.62,8.62,0,0,0,1.08-2.22,8.79,8.79,0,0,0,.35-2.45A8.53,8.53,0,0,0,26.71,12c0-.2-.08-.41-.13-.6a1.27,1.27,0,0,1,.1-1,1.22,1.22,0,0,1,1.81-.37.77.77,0,0,1,.18.18.92.92,0,0,1,.13.18l.18.31c.11.2.22.41.31.62a8.8,8.8,0,0,1-2,10.09A8.55,8.55,0,0,1,17.3,22.66Z"/><path class="cls-2" d="M4.84,17.18,3.06,12.23l-.42-.09V12H4.39v.14l-.57.09L5.18,16l.92-2.42-.47-1.32L5,12.14V12H6.92v.14l-.54.07L7.75,16l1.36-3.54-.72-.28V12H9.75v.14l-.48.28L7.46,17.18h0L6.18,13.77,4.89,17.18Z"/><path class="cls-2" d="M10.25,16.91a1.57,1.57,0,0,1-.6-.6,1.91,1.91,0,0,1,0-1.78,1.63,1.63,0,0,1,1.41-.81,1.45,1.45,0,0,1,.72.18,1.28,1.28,0,0,1,.49.49,1.43,1.43,0,0,1,.18.72H10.13v.62a1.46,1.46,0,0,0,.25.9.82.82,0,0,0,.72.35,1.23,1.23,0,0,0,.77-.25,1,1,0,0,0,.41-.64h.15a1.19,1.19,0,0,1-.45.75,1.38,1.38,0,0,1-.88.28A1.73,1.73,0,0,1,10.25,16.91Zm1.51-2a1.59,1.59,0,0,0-.17-.82.61.61,0,0,0-.54-.27.77.77,0,0,0-.65.3,1.36,1.36,0,0,0-.27.79Z"/><path class="cls-2" d="M13,17.06v-.14l.58-.25V12.38L13,12.14V12h1.17l2.73,3.82V12.38l-.59-.24V12h1.34v.14l-.6.24v4.68h-.15l-3.16-4.44v4.05l.61.25v.14Z"/><path class="cls-2" d="M18.1,16.92l.58-.09v-4.6l-.58-.09V12H20a3.56,3.56,0,0,1,1.09.13,1.11,1.11,0,0,1,.59.38,1.13,1.13,0,0,1,.18.67c0,.61-.39,1-1.15,1.16v0a2.13,2.13,0,0,1,1.09.41,1.12,1.12,0,0,1,.39.9,1.15,1.15,0,0,1-.51,1,2.51,2.51,0,0,1-1.38.34H18.1Zm2-2.6a1,1,0,0,0,.78-.28,1.13,1.13,0,0,0,.27-.81v0c0-.69-.37-1-1.1-1h-.65v2.16Zm.25,2.58a1.1,1.1,0,0,0,.84-.31,1.24,1.24,0,0,0,.29-.89v-.07a1.12,1.12,0,0,0-.29-.86,1.16,1.16,0,0,0-.84-.29h-.95V16.9Z"/></svg>